<svg id="visual" viewBox="0 0 900 600" width="900" height="600" xmlns="http://www.w3.org/2000/svg" xmlns:xlink="http://www.w3.org/1999/xlink" version="1.1"><rect x="0" y="0" width="900" height="600" fill="#fcb600"></rect><path d="M0 419L16.7 435C33.3 451 66.7 483 100 485.2C133.3 487.3 166.7 459.7 200 454.5C233.3 449.3 266.7 466.7 300 482.3C333.3 498 366.7 512 400 510.2C433.3 508.3 466.7 490.7 500 483.3C533.3 476 566.7 479 600 489.2C633.3 499.3 666.7 516.7 700 513C733.3 509.3 766.7 484.7 800 478.2C833.3 471.7 866.7 483.3 883.3 489.2L900 495L900 601L883.3 601C866.7 601 833.3 601 800 601C766.7 601 733.3 601 700 601C666.7 601 633.3 601 600 601C566.7 601 533.3 601 500 601C466.7 601 433.3 601 400 601C366.7 601 333.3 601 300 601C266.7 601 233.3 601 200 601C166.7 601 133.3 601 100 601C66.7 601 33.3 601 16.7 601L0 601Z" fill="#fff" stroke-linecap="round" stroke-linejoin="miter"></path></svg>